<svg width="114" height="36" viewBox="0 0 114 36" fill="none" xmlns="http://www.w3.org/2000/svg"><g clip-path="url(#clip0_132_3462)"><path d="M32.3465 12.0315V19.0551C31.811 27.0236 24.9134 33.0394 16.9449 32.5039C8.9764 31.9685 2.96065 25.0709 3.49608 17.1024C4.00002 9.6063 10.1732 3.74803 17.6693 3.62205H22.1732V0.220474H17.6693C7.77955 0.346458 -0.125964 8.44095 2.02545e-05 18.3307C0.126005 28.2205 8.25199 36.126 18.1103 36C27.5276 35.874 35.2441 28.4724 35.748 19.0551V12.0315H32.3465Z" fill="#0991F8"></path><path d="M48.1261 9.98426V4.91339H64.2205V8.97638L58.8347 15.1181C62.6457 15.5591 65.5119 18.8347 65.4489 22.6772C65.5749 25.1654 64.5355 27.5591 62.6457 29.1654C60.5985 30.7717 58.0788 31.6221 55.4646 31.5276C52.2835 31.4016 49.2284 30.3307 46.7087 28.441L49.1339 23.7795C51.0237 25.3228 53.3544 26.2362 55.7796 26.4252C56.819 26.4567 57.8583 26.1732 58.6772 25.5748C59.4646 24.9764 59.8741 24.0315 59.8426 23.0551C59.8111 22.0473 59.3072 21.1024 58.4568 20.5354C57.3859 19.8425 56.0946 19.4961 54.8032 19.5591C53.6064 19.6221 52.4095 19.874 51.3072 20.2835V15.874L56.3465 9.98426H48.1261Z" fill="#FE6B01"></path><path d="M70.5828 30.5512C69.2599 29.2598 69.2599 27.1181 70.5513 25.8268C71.8426 24.5039 73.9843 24.5039 75.2757 25.7953C76.567 27.0866 76.567 29.1969 75.2757 30.4882C73.9843 31.7795 71.8741 31.7795 70.5828 30.4882V30.5512Z" fill="#FE6B01"></path><path d="M78.4567 4.91339H89.1023V31.2126H83.4645V9.98426H78.4567V4.91339Z" fill="#FE6B01"></path><path d="M104.378 19.8425V15.2756H110.016V19.8425H113.008V24.9134H110.016V31.1811H104.378V24.9134H93.8583V20.5039L103.213 4.97638H109.606L100.693 19.9055L104.378 19.8425Z" fill="#FE6B01"></path><path d="M12.4725 17.2913C11.4961 17.2913 10.7087 16.5039 10.7087 15.5276C10.7087 14.5512 11.4961 13.7638 12.4725 13.7638H23.0867C24.0631 13.7638 24.8505 14.5512 24.8505 15.5276C24.8505 16.5039 24.0631 17.2913 23.0867 17.2913H12.4725Z" fill="#FE6B01"></path><path d="M12.4725 17.1654C11.5906 17.0709 10.9292 16.2835 11.0236 15.4016C11.1181 14.6457 11.7166 14.0472 12.4725 13.9528H23.0866C23.9685 14.0472 24.6299 14.8346 24.5355 15.7165C24.441 16.4724 23.8425 17.0709 23.0866 17.1654H12.4725Z" fill="#FE6B01"></path><path d="M12.4725 17.0079C11.6536 17.0079 10.9607 16.3465 10.9607 15.4961C10.9607 14.6772 11.6221 13.9843 12.4725 13.9843H23.0867C23.9056 13.9843 24.5985 14.6457 24.5985 15.4961C24.5985 16.315 23.9371 17.0079 23.0867 17.0079H12.4725Z" fill="#FE6B01"></path><path d="M11.9371 14.1732H23.5906C24.0315 14.1732 24.4095 14.5512 24.4095 14.9921V16.0945C24.4095 16.5354 24.0315 16.9134 23.5906 16.9134H11.9371C11.4961 16.9134 11.1182 16.5354 11.1182 16.0945V14.9921C11.1182 14.5512 11.4961 14.1732 11.9371 14.1732Z" fill="#FE6B01"></path><path d="M15.0552 25.4803C14.0788 25.4803 13.2914 24.6929 13.2914 23.7165V17.1339C13.2914 16.1575 14.0788 15.3701 15.0552 15.3701C16.0315 15.3701 16.8189 16.1575 16.8189 17.1339V23.748C16.8189 24.6929 16.0315 25.4803 15.0552 25.4803Z" fill="#FE6B01"></path><path d="M15.0552 25.3228C14.1733 25.3228 13.4489 24.5984 13.4489 23.7165V17.1024C13.5433 16.2205 14.3307 15.5591 15.2126 15.6535C15.9685 15.748 16.567 16.3465 16.6615 17.1024V23.7165C16.6615 24.6299 15.937 25.3228 15.0552 25.3228Z" fill="#FE6B01"></path><path d="M15.0551 25.2283C14.2362 25.2283 13.5433 24.5669 13.5433 23.7165V17.1024C13.5433 16.2835 14.2048 15.5905 15.0551 15.5905C15.874 15.5905 16.567 16.252 16.567 17.1024V23.7165C16.567 24.5354 15.9055 25.2283 15.0866 25.2283C15.0866 25.2283 15.0866 25.2283 15.0551 25.2283Z" fill="#FE6B01"></path><path d="M13.7008 24.2835V16.5669C13.7008 16.126 14.0788 15.748 14.5197 15.748H15.6221C16.063 15.748 16.441 16.126 16.441 16.5669V24.2835C16.441 24.7244 16.063 25.1024 15.6221 25.1024H14.5197C14.0473 25.1024 13.7008 24.7244 13.7008 24.2835Z" fill="#FE6B01"></path><path d="M20.4725 25.4803C19.4961 25.4803 18.7087 24.6929 18.7087 23.7165V17.1339C18.7087 16.1575 19.4961 15.3701 20.4725 15.3701C21.4489 15.3701 22.2363 16.1575 22.2363 17.1339V23.748C22.2363 24.6929 21.4489 25.4803 20.4725 25.4803Z" fill="#FE6B01"></path><path d="M20.4725 25.3228C19.5906 25.3228 18.8662 24.5984 18.8662 23.7165V17.1024C18.9607 16.2205 19.7481 15.5591 20.63 15.6535C21.3859 15.748 21.9843 16.3465 22.0788 17.1024V23.7165C22.0788 24.5984 21.3544 25.3228 20.4725 25.3228Z" fill="#FE6B01"></path><path d="M20.4725 25.2283C19.6536 25.2283 18.9607 24.5669 18.9607 23.748V23.7165V17.1024C18.9607 16.2835 19.6221 15.5905 20.4725 15.5905C21.3229 15.5905 21.9843 16.252 21.9843 17.1024V23.7165C21.9843 24.5669 21.3229 25.2283 20.4725 25.2283Z" fill="#FE6B01"></path><path d="M19.0867 24.2835V16.5669C19.0867 16.126 19.4646 15.748 19.9056 15.748H21.0079C21.4489 15.748 21.8268 16.126 21.8268 16.5669V24.2835C21.8268 24.7244 21.4489 25.1024 21.0079 25.1024H19.9056C19.4646 25.1024 19.0867 24.7244 19.0867 24.2835Z" fill="#FE6B01"></path><path d="M30.7401 0L29.9527 0.755906L24.4094 6.23622L25.9842 7.84252L30.7716 3.11811L35.685 7.71654L37.2283 6.07874L31.5905 0.724409L30.7401 0Z" fill="#FE6B01"></path></g><defs><clipPath id="clip0_132_3462"><rect width="113.008" height="36" fill="white"></rect></clipPath></defs></svg>